<svg xmlns="http://www.w3.org/2000/svg" viewBox="0 0 512 104" width="512" height="104">
  <path fill="#1877F2" d="M0 39.07C0 17.49 17.49 0 39.07 0h25.86c21.58 0 39.07 17.49 39.07 39.07v25.86c0 21.58-17.49 39.07-39.07 39.07H39.07C17.49 104 0 86.51 0 64.93V39.07z"/>
  <path fill="#fff" d="M72.19 67l2.61-17H58.47V39.67c0-4.65 2.28-9.19 9.59-9.19h7.42V16.33S69.01 15 62.89 15c-12.75 0-21.08 7.73-21.08 21.72V50H27.28v17h14.53v41.14c2.91.46 5.9.86 8.96.86 3.06 0 6.05-.4 8.96-.86V67h12.46z"/>
  <path fill="#1877F2" d="M152.8 15c-7.37 0-11.91 3.9-11.91 10.4v9.6h-7.8v14h7.8v49h17V49h11.7l1.8-14h-13.5v-8c0-3.2 1.6-6 5.6-6h8.3v-6h-19zM205 88c-5 0-9.1-4.1-9.1-9v-1c0-5 4.1-9 9.1-9h1c5 0 9 4 9 9v1c0 4.9-4 9-9 9h-1zm-9.1-50.1c0-4.9 4.1-9 9.1-9h1c4.9 0 9 4.1 9 9v1c0 4.9-4.1 9-9 9h-1c-5 0-9.1-4.1-9.1-9v-1zM247 15c-18.2 0-33 14.8-33 33v2c0 18.2 14.8 33 33 33s33-14.8 33-33v-2c0-18.2-14.8-33-33-33zm16 35c0 8.8-7.2 16-16 16s-16-7.2-16-16v-2c0-8.8 7.2-16 16-16s16 7.2 16 16v2zM322.5 63.5c3.2-3.2 5.5-7.7 5.5-13.5 0-11-9-20-20-20h-26v53h18V64h3l10 19h20l-10.5-19.5zM308 51h-8V43h8c2.2 0 4 1.8 4 4s-1.8 4-4 4zM372 30h-18v53h18V61.5L393.5 83h22.5l-26-32 24-21h-22l-20 18V30zM454.8 83c18.2 0 33-14.8 33-33v-2c0-18.2-14.8-33-33-33s-33 14.8-33 33v2c0 18.2 14.8 33 33 33zm-16-35c0-8.8 7.2-16 16-16s16 7.2 16 16v2c0 8.8-7.2 16-16 16s-16-7.2-16-16v-2z"/>
</svg>
