<svg xmlns="http://www.w3.org/2000/svg" viewBox="0 0 240 60" width="240" height="60">
  <path fill="#8ED500" d="M0 30c0-16.57 13.43-30 30-30s30 13.43 30 30-13.43 30-30 30S0 46.57 0 30z"/>
  <path fill="#fff" d="M30 12c-9.94 0-18 8.06-18 18h7.2c0-5.96 4.84-10.8 10.8-10.8 5.96 0 10.8 4.84 10.8 10.8H48c0-9.94-8.06-18-18-18z"/>
  <path fill="#00B246" d="M80 15h7v5.5c2-3.67 5.5-6 10-5.5v7c-5.5-.5-10 2-10 8v15h-7V15zm49 15c0 8.28-6.72 15-15 15s-15-6.72-15-15 6.72-15 15-15 15 6.72 15 15zm-7 0c0-4.42-3.58-8-8-8s-8 3.58-8 8 3.58 8 8 8 8-3.58 8-8zm35 0c0 8.28-6.72 15-15 15s-15-6.72-15-15 6.72-15 15-15 15 6.72 15 15zm-7 0c0-4.42-3.58-8-8-8s-8 3.58-8 8 3.58 8 8 8 8-3.58 8-8zm23 0c0-4.42 3.58-8 8-8V15c-4.5 0-7.5 2.33-9.5 6V15h-7v30h7V30zm23 0c0 4.42-3.58 8-8 8V45c8.28 0 15-6.72 15-15s-6.72-15-15-15v7c4.42 0 8 3.58 8 8z"/>
  <path fill="#00B246" d="M211.5 5h7v40h-7V5zm16 40h7V15h-7v30zm0-33c0-2.21 1.79-4 3.5-4s3.5 1.79 3.5 4-1.79 4-3.5 4-3.5-1.79-3.5-4z"/>
</svg>
