<svg xmlns="http://www.w3.org/2000/svg" viewBox="0 0 200 80" width="200" height="80">
  <path fill="#FF1A1A" d="M34.18 44.94l-15.18-4.9c-2.1-.68-4.28.98-4.09 3.14l1.07 12.22c.19 2.16 2.67 3.27 4.44 1.98l13.1-9.54c1.88-1.37 1.79-4.14-.34-4.9zm3.12-7.77l10.47-11.96c1.44-1.65.77-4.25-1.26-4.91l-11.52-3.73c-2.03-.66-4.03 1.14-3.78 3.41l1.42 12.92c.26 2.38 3.05 3.45 4.67 2.27zm-4.06 21.57l-2.52 14.76c-.35 2.03 1.46 3.78 3.43 3.31l11.11-2.63c1.97-.47 2.88-2.78 1.72-4.36l-8.59-11.73c-1.22-1.67-3.84-1.3-5.15.65zm14.33-4.33l16.57 1.24c2.3.17 3.87-2.26 2.79-4.34l-6.16-11.84c-1.08-2.08-3.91-2.24-5.2-.29l-9.34 14.06c-1.36 2.05.24 4.96 1.34 5.17zm.74-15.85c.42-2.2-1.69-4.07-3.86-3.42l-.06.02c-1.94.58-2.92 2.73-2.01 4.52l8.78 17.29c1.04 2.05 3.83 2.13 5 .14l5.78-9.82c.92-1.56.11-3.59-1.65-4.12l-11.98-4.61z"/>
  <path fill="#FF1A1A" d="M83 24l-8.67 22.53L65.67 24H56l13.74 32-6.13 14H73l16-46H83zM113 38.5c0 3-2.42 4.5-5.67 4.5H101V34h6.33c3.25 0 5.67 1.5 5.67 4.5zM101 52h8.17c3.08 0 5.83 1.75 5.83 5s-2.75 5-5.83 5H101V52zm22-11c0-6.09-4.25-11.24-11.33-12.38V28h-22v42h24c7.58 0 13.33-5.42 13.33-12.5 0-5.02-2.83-9.17-7.42-10.83C122.58 45.08 123 42.25 123 41zm8 29V28h11v42h-11zM167 49c0 6.63-5.37 12-12 12s-12-5.37-12-12 5.37-12 12-12 12 5.37 12 12zm-12-21c-12.7 0-23 10.3-23 21 0 11.6 10.3 21 23 21s23-9.4 23-21c0-10.7-10.3-21-23-21zm45 0v5c-3.33-3.93-8-6-14-5v42h-11V28h11v4.5c3-3.5 7.67-5.17 14-4.5z"/>
</svg>
